<svg width="28" height="28" viewBox="0 0 28 28" fill="none" xmlns="http://www.w3.org/2000/svg">
<path d="M0 14C0 21.732 6.26801 28 14 28C21.732 28 28 21.732 28 14C28 6.26801 21.732 0 14 0C6.26801 0 0 6.26801 0 14Z" fill="currentColor"/>
<path fill-rule="evenodd" clip-rule="evenodd" d="M22.042 8.91453C22.3213 9.18049 22.5219 9.5112 22.6236 9.87355C23 11.211 23 14 23 14C23 14 23 16.789 22.6236 18.1265C22.5219 18.4888 22.3213 18.8195 22.042 19.0855C21.7628 19.3514 21.4146 19.5433 21.0323 19.6419C19.625 20 14 20 14 20C14 20 8.375 20 6.96773 19.6419C6.58545 19.5433 6.23724 19.3514 5.95797 19.0855C5.67869 18.8195 5.47813 18.4888 5.37636 18.1265C5 16.789 5 14 5 14C5 14 5 11.211 5.37636 9.87355C5.47813 9.5112 5.67869 9.18049 5.95797 8.91453C6.23724 8.64857 6.58545 8.45668 6.96773 8.35806C8.375 8 14 8 14 8C14 8 19.625 8 21.0323 8.35806C21.4146 8.45668 21.7628 8.64857 22.042 8.91453ZM16.8636 14L12.1591 11.4674V16.5326L16.8636 14Z" fill="#E6E6E6"/>
</svg>