<svg width="307" height="18" viewBox="0 0 307 18" fill="none" xmlns="http://www.w3.org/2000/svg">
<path d="M191.089 2H190.27C185.703 2 182.001 5.35776 182 9.50034C182 13.6422 185.703 17 190.27 17H194.509H198.645V13.2498V5.75017H202.884C205.168 5.75017 207.019 7.42902 207.019 9.49961C207.019 11.5709 205.168 13.2498 202.884 13.2498H199.678L202.065 16.9992H202.884C207.451 16.9992 211.154 13.6415 211.154 9.49961C211.154 5.35776 207.451 2 202.884 2H198.645H194.509V5.75017V13.2498H190.27C187.986 13.2498 186.135 11.5709 186.135 9.50034C186.135 7.42902 187.987 5.75017 190.27 5.75017H193.476L191.089 2Z" fill="#909090"/>
<path d="M219.829 9.37729C219.829 9.94038 219.898 10.479 220.037 10.9931C220.189 11.495 220.417 11.9418 220.721 12.3335C221.024 12.7129 221.41 13.019 221.879 13.2515C222.347 13.4841 222.904 13.6065 223.549 13.6188C223.941 13.631 224.321 13.5882 224.688 13.4902C225.068 13.3923 225.403 13.2454 225.694 13.0496C225.985 12.8415 226.219 12.5783 226.396 12.26C226.586 11.9418 226.7 11.5684 226.738 11.14H223.359V8.9917H229.433C229.446 9.45686 229.44 9.93426 229.414 10.4239C229.389 10.9135 229.32 11.3909 229.206 11.8561C229.104 12.3212 228.946 12.7742 228.731 13.2148C228.529 13.6433 228.257 14.0288 227.915 14.3716C227.434 14.8612 226.833 15.2591 226.112 15.5651C225.39 15.8589 224.523 16.0058 223.511 16.0058C222.461 16.0058 221.524 15.8466 220.702 15.5284C219.892 15.1979 219.208 14.7388 218.652 14.1513C218.107 13.5637 217.69 12.866 217.399 12.0581C217.12 11.2502 216.981 10.3627 216.981 9.39566C216.981 8.40414 217.12 7.49831 217.399 6.67817C217.69 5.85803 218.114 5.16029 218.671 4.58497C219.227 3.9974 219.911 3.54449 220.721 3.22623C221.543 2.89572 222.48 2.73047 223.53 2.73047C224.251 2.73047 224.941 2.82228 225.599 3.00589C226.257 3.1895 226.839 3.46492 227.345 3.83215C227.852 4.19938 228.269 4.65842 228.598 5.20926C228.927 5.7601 229.123 6.40275 229.187 7.1372H226.529C226.403 6.51292 226.048 6.01104 225.466 5.63157C224.897 5.2521 224.213 5.07461 223.416 5.09909C222.783 5.12357 222.239 5.25822 221.784 5.50304C221.328 5.73562 220.955 6.04776 220.664 6.43947C220.373 6.83118 220.158 7.2841 220.018 7.79821C219.892 8.30009 219.829 8.82645 219.829 9.37729Z" fill="#909090"/>
<path d="M235.745 13.9309C236.125 13.9309 236.448 13.8758 236.713 13.7657C236.992 13.6433 237.219 13.4474 237.397 13.1781H240.206C240.067 13.68 239.852 14.1145 239.561 14.4818C239.282 14.849 238.941 15.1489 238.536 15.3815C238.143 15.614 237.707 15.7854 237.226 15.8956C236.745 15.9935 236.239 16.0425 235.707 16.0425C234.087 16.0425 232.86 15.6018 232.025 14.7205C231.202 13.8391 230.791 12.6028 230.791 11.0115C230.791 10.2892 230.898 9.62211 231.114 9.01007C231.341 8.39802 231.658 7.87166 232.063 7.43099C232.468 6.97807 232.968 6.62921 233.562 6.38439C234.17 6.13957 234.859 6.01716 235.631 6.01716C236.53 6.01716 237.308 6.17017 237.966 6.47619C238.624 6.78222 239.143 7.20453 239.523 7.74313C239.915 8.26949 240.174 8.88766 240.301 9.59763C240.44 10.3076 240.44 11.0665 240.301 11.8744H233.467C233.518 12.4498 233.727 12.9394 234.094 13.3434C234.461 13.7351 235.011 13.9309 235.745 13.9309ZM237.814 10.0934C237.814 9.78736 237.757 9.51806 237.643 9.28549C237.53 9.04067 237.378 8.84481 237.188 8.69792C236.998 8.53879 236.77 8.4225 236.505 8.34906C236.251 8.27561 235.986 8.23889 235.707 8.23889C235.037 8.25113 234.511 8.42862 234.132 8.77137C233.765 9.10187 233.55 9.54255 233.486 10.0934H237.814Z" fill="#909090"/>
<path d="M246.701 13.9309C247.08 13.9309 247.403 13.8758 247.669 13.7657C247.947 13.6433 248.175 13.4474 248.352 13.1781H251.161C251.022 13.68 250.807 14.1145 250.516 14.4818C250.238 14.849 249.896 15.1489 249.491 15.3815C249.099 15.614 248.662 15.7854 248.181 15.8956C247.7 15.9935 247.194 16.0425 246.663 16.0425C245.043 16.0425 243.815 15.6018 242.98 14.7205C242.158 13.8391 241.746 12.6028 241.746 11.0115C241.746 10.2892 241.854 9.62211 242.069 9.01007C242.297 8.39802 242.613 7.87166 243.018 7.43099C243.423 6.97807 243.923 6.62921 244.518 6.38439C245.125 6.13957 245.815 6.01716 246.587 6.01716C247.485 6.01716 248.264 6.17017 248.922 6.47619C249.58 6.78222 250.098 7.20453 250.478 7.74313C250.87 8.26949 251.13 8.88766 251.256 9.59763C251.396 10.3076 251.396 11.0665 251.256 11.8744H244.423C244.473 12.4498 244.682 12.9394 245.049 13.3434C245.416 13.7351 245.967 13.9309 246.701 13.9309ZM248.77 10.0934C248.77 9.78736 248.713 9.51806 248.599 9.28549C248.485 9.04067 248.333 8.84481 248.143 8.69792C247.953 8.53879 247.726 8.4225 247.46 8.34906C247.207 8.27561 246.941 8.23889 246.663 8.23889C245.992 8.25113 245.467 8.42862 245.087 8.77137C244.72 9.10187 244.505 9.54255 244.442 10.0934H248.77Z" fill="#909090"/>
<path d="M255.777 12.2049V15.8956H253.1V2.89572H255.777V9.96486H257.106L259.27 6.21913H262.326L259.364 10.8095L262.553 15.8956H259.44L257.201 12.2049H255.777Z" fill="#909090"/>
<path d="M273.349 2.89572V5.26434H266.724V8.62448H272.286V10.9564H266.724V15.8956H263.972V2.89572H273.349Z" fill="#909090"/>
<path d="M277.558 15.8956H274.882V2.89572H277.558V15.8956Z" fill="#909090"/>
<path d="M284.333 8.33069C283.511 8.33069 282.903 8.58775 282.511 9.10187C282.119 9.61599 281.923 10.2586 281.923 11.0298C281.923 11.8132 282.119 12.462 282.511 12.9761C282.903 13.4902 283.511 13.7473 284.333 13.7473C285.156 13.7473 285.757 13.4902 286.137 12.9761C286.516 12.462 286.706 11.8132 286.706 11.0298C286.706 10.2586 286.516 9.61599 286.137 9.10187C285.757 8.58775 285.156 8.33069 284.333 8.33069ZM284.333 16.0425C282.713 16.0425 281.467 15.6018 280.594 14.7205C279.721 13.8269 279.284 12.5905 279.284 11.0115C279.284 10.2525 279.398 9.56703 279.626 8.95498C279.866 8.33069 280.195 7.79821 280.613 7.35754C281.043 6.91687 281.568 6.58636 282.188 6.36602C282.821 6.13345 283.536 6.01716 284.333 6.01716C285.118 6.01716 285.82 6.13345 286.44 6.36602C287.073 6.58636 287.604 6.91687 288.035 7.35754C288.478 7.79821 288.813 8.33069 289.041 8.95498C289.281 9.56703 289.401 10.2525 289.401 11.0115C289.401 12.6028 288.959 13.8391 288.073 14.7205C287.2 15.6018 285.953 16.0425 284.333 16.0425Z" fill="#909090"/>
<path d="M293.151 15.8956L290.057 6.21913H293.018L294.822 12.9394L296.872 6.21913H299.548L301.579 12.9394L303.382 6.21913H306.173L303.098 15.8956H300.156L298.143 9.48746L296.188 15.8956H293.151Z" fill="#909090"/>
<path d="M5.264 5.432C4.74133 5.432 4.28867 5.53 3.906 5.726C3.53267 5.922 3.22467 6.18333 2.982 6.51C2.73933 6.83667 2.55733 7.21933 2.436 7.658C2.324 8.08733 2.268 8.54 2.268 9.016C2.268 9.50133 2.32867 9.96333 2.45 10.402C2.57133 10.8407 2.75333 11.228 2.996 11.564C3.248 11.8907 3.56533 12.152 3.948 12.348C4.33067 12.544 4.78333 12.642 5.306 12.642C5.95 12.642 6.48667 12.502 6.916 12.222C7.35467 11.942 7.63 11.564 7.742 11.088H9.366C9.29133 11.564 9.13267 11.9887 8.89 12.362C8.65667 12.7353 8.36267 13.0527 8.008 13.314C7.65333 13.566 7.24267 13.762 6.776 13.902C6.30933 14.0327 5.81 14.098 5.278 14.098C4.50333 14.098 3.822 13.972 3.234 13.72C2.65533 13.468 2.17 13.118 1.778 12.67C1.386 12.222 1.092 11.69 0.896 11.074C0.7 10.458 0.602 9.78133 0.602 9.044C0.602 8.32533 0.7 7.658 0.896 7.042C1.10133 6.41667 1.4 5.88 1.792 5.432C2.184 4.97467 2.66933 4.62 3.248 4.368C3.836 4.10667 4.51733 3.976 5.292 3.976C6.384 3.976 7.28467 4.23267 7.994 4.746C8.70333 5.25933 9.13267 6.01533 9.282 7.014H7.686C7.56467 6.52867 7.294 6.146 6.874 5.866C6.454 5.57667 5.91733 5.432 5.264 5.432ZM11.6468 9.044C11.6655 8.736 11.6795 8.372 11.6888 7.952C11.6981 7.52267 11.7028 7.07933 11.7028 6.622H17.3868V12.642H18.3528V16.156H16.7988V14H11.7588V16.156H10.2048V12.642C10.4755 12.642 10.6995 12.558 10.8768 12.39C11.0635 12.2127 11.1895 12.026 11.2548 11.83C11.3201 11.662 11.3761 11.452 11.4228 11.2C11.4695 10.9387 11.5068 10.682 11.5348 10.43C11.5628 10.178 11.5861 9.94467 11.6048 9.73C11.6235 9.51533 11.6375 9.28667 11.6468 9.044ZM15.7908 8.008H13.1588C13.1401 8.344 13.1261 8.708 13.1168 9.1C13.1075 9.492 13.0935 9.87 13.0748 10.234C13.0655 10.4393 13.0515 10.64 13.0328 10.836C13.0141 11.0227 12.9861 11.2233 12.9488 11.438C12.9115 11.6433 12.8601 11.8487 12.7948 12.054C12.7295 12.2593 12.6408 12.4553 12.5288 12.642H15.7908V8.008ZM20.7778 10.85C20.7964 11.1207 20.8524 11.3727 20.9458 11.606C21.0391 11.8393 21.1651 12.0447 21.3238 12.222C21.4824 12.39 21.6784 12.5253 21.9118 12.628C22.1544 12.7307 22.4344 12.782 22.7518 12.782C23.0878 12.782 23.3958 12.7213 23.6758 12.6C23.9651 12.4787 24.1751 12.2687 24.3058 11.97H25.9438C25.8504 12.3433 25.6964 12.6653 25.4818 12.936C25.2764 13.2067 25.0291 13.4307 24.7398 13.608C24.4598 13.776 24.1471 13.902 23.8018 13.986C23.4658 14.0607 23.1064 14.098 22.7238 14.098C22.1358 14.098 21.6178 14.0093 21.1698 13.832C20.7311 13.6547 20.3624 13.398 20.0638 13.062C19.7651 12.726 19.5411 12.3293 19.3918 11.872C19.2518 11.4053 19.1818 10.8827 19.1818 10.304C19.1818 9.744 19.2611 9.23533 19.4198 8.778C19.5784 8.31133 19.8071 7.91 20.1058 7.574C20.4138 7.238 20.7824 6.97667 21.2118 6.79C21.6411 6.594 22.1311 6.496 22.6818 6.496C23.2604 6.496 23.7598 6.594 24.1798 6.79C24.5998 6.97667 24.9498 7.23333 25.2298 7.56C25.5191 7.88667 25.7338 8.26933 25.8738 8.708C26.0138 9.14667 26.0838 9.62267 26.0838 10.136C26.0838 10.3787 26.0698 10.6167 26.0418 10.85H20.7778ZM24.5298 9.646C24.5018 9.06733 24.3198 8.62867 23.9838 8.33C23.6571 8.03133 23.2278 7.882 22.6958 7.882C22.3971 7.882 22.1358 7.92867 21.9118 8.022C21.6878 8.11533 21.4964 8.24133 21.3378 8.4C21.1884 8.55867 21.0671 8.74533 20.9738 8.96C20.8804 9.17467 20.8198 9.40333 20.7918 9.646H24.5298ZM28.1458 10.486C28.1925 9.85133 28.2205 9.22133 28.2298 8.596C28.2485 7.96133 28.2671 7.30333 28.2858 6.622H33.8018V14H32.1918V8.008H29.7698C29.7511 8.46533 29.7325 8.92267 29.7138 9.38C29.7045 9.828 29.6858 10.276 29.6578 10.724C29.6485 10.892 29.6298 11.0927 29.6018 11.326C29.5831 11.55 29.5551 11.7787 29.5178 12.012C29.4805 12.236 29.4245 12.4507 29.3498 12.656C29.2751 12.852 29.1818 13.034 29.0698 13.202C28.8738 13.482 28.6125 13.6873 28.2858 13.818C27.9685 13.9393 27.5998 14 27.1798 14H26.7878V12.628C27.0678 12.628 27.2918 12.5627 27.4598 12.432C27.6371 12.292 27.7678 12.1193 27.8518 11.914C27.9451 11.6993 28.0105 11.4707 28.0478 11.228C28.0945 10.976 28.1271 10.7287 28.1458 10.486ZM40.2999 13.09C40.0572 13.4353 39.7352 13.692 39.3339 13.86C38.9325 14.0187 38.4845 14.098 37.9899 14.098C37.5979 14.098 37.2385 14.0513 36.9119 13.958C36.5945 13.8647 36.3145 13.7247 36.0719 13.538C35.8292 13.342 35.6379 13.104 35.4979 12.824C35.3579 12.5347 35.2879 12.208 35.2879 11.844C35.2879 11.4427 35.3672 11.102 35.5259 10.822C35.6845 10.5327 35.8992 10.2993 36.1699 10.122C36.4499 9.94467 36.7765 9.814 37.1499 9.73C37.5232 9.63667 37.9152 9.59 38.3259 9.59H40.2159C40.2159 9.04867 40.0945 8.62867 39.8519 8.33C39.6092 8.03133 39.1845 7.87733 38.5779 7.868C38.2232 7.868 37.9152 7.92867 37.6539 8.05C37.4019 8.17133 37.2339 8.372 37.1499 8.652H35.5119C35.5679 8.26 35.6939 7.92867 35.8899 7.658C36.0952 7.38733 36.3379 7.16333 36.6179 6.986C36.9072 6.80867 37.2245 6.68267 37.5699 6.608C37.9245 6.53333 38.2792 6.496 38.6339 6.496C39.0912 6.496 39.5159 6.55667 39.9079 6.678C40.2999 6.79933 40.6405 7.00467 40.9299 7.294C41.2565 7.63 41.4759 8.03133 41.5879 8.498C41.6999 8.96467 41.7559 9.47333 41.7559 10.024V14H40.3699L40.2999 13.09ZM40.2159 10.724H38.6759C38.4052 10.724 38.1345 10.7473 37.8639 10.794C37.5932 10.8313 37.3599 10.9293 37.1639 11.088C36.9772 11.2373 36.8839 11.4567 36.8839 11.746C36.8839 12.1007 37.0099 12.3713 37.2619 12.558C37.5232 12.7353 37.8405 12.824 38.2139 12.824C38.5032 12.824 38.7692 12.7867 39.0119 12.712C39.2639 12.6373 39.4785 12.516 39.6559 12.348C39.8332 12.1707 39.9685 11.9513 40.0619 11.69C40.1645 11.4193 40.2159 11.0973 40.2159 10.724ZM44.1556 10.486C44.2022 9.85133 44.2302 9.22133 44.2396 8.596C44.2582 7.96133 44.2769 7.30333 44.2956 6.622H49.8116V14H48.2016V8.008H45.7796C45.7609 8.46533 45.7422 8.92267 45.7236 9.38C45.7142 9.828 45.6956 10.276 45.6676 10.724C45.6582 10.892 45.6396 11.0927 45.6116 11.326C45.5929 11.55 45.5649 11.7787 45.5276 12.012C45.4902 12.236 45.4342 12.4507 45.3596 12.656C45.2849 12.852 45.1916 13.034 45.0796 13.202C44.8836 13.482 44.6222 13.6873 44.2956 13.818C43.9782 13.9393 43.6096 14 43.1896 14H42.7976V12.628C43.0776 12.628 43.3016 12.5627 43.4696 12.432C43.6469 12.292 43.7776 12.1193 43.8616 11.914C43.9549 11.6993 44.0202 11.4707 44.0576 11.228C44.1042 10.976 44.1369 10.7287 44.1556 10.486ZM53.0336 14H51.5496V6.622H53.1456V11.69L56.8976 6.622H58.3396V14H56.7436V9.03C56.7343 9.04867 55.4976 10.7053 53.0336 14ZM65.3383 14H63.8543V6.622H65.4503V11.69L69.2023 6.622H70.6443V14H69.0483V9.03C69.039 9.04867 67.8023 10.7053 65.3383 14ZM79.407 14.098C78.819 14.098 78.301 14.0093 77.853 13.832C77.4143 13.6453 77.0457 13.3887 76.747 13.062C76.4577 12.726 76.2383 12.3293 76.089 11.872C75.949 11.4053 75.879 10.892 75.879 10.332C75.879 9.772 75.9537 9.25867 76.103 8.792C76.2617 8.32533 76.495 7.924 76.803 7.588C77.111 7.252 77.4843 6.986 77.923 6.79C78.3617 6.594 78.8703 6.496 79.449 6.496C79.8597 6.496 80.2377 6.54267 80.583 6.636C80.9377 6.72 81.2503 6.86467 81.521 7.07C81.7917 7.266 82.025 7.518 82.221 7.826C82.417 8.12467 82.5523 8.48867 82.627 8.918H80.975C80.891 8.60067 80.709 8.358 80.429 8.19C80.1583 8.01267 79.8223 7.924 79.421 7.924C79.0663 7.924 78.763 7.98933 78.511 8.12C78.259 8.25067 78.0537 8.428 77.895 8.652C77.7363 8.876 77.6197 9.13733 77.545 9.436C77.4797 9.72533 77.447 10.0287 77.447 10.346C77.447 10.6727 77.4843 10.9807 77.559 11.27C77.6337 11.5593 77.7503 11.8113 77.909 12.026C78.077 12.2313 78.287 12.3993 78.539 12.53C78.791 12.6513 79.0943 12.712 79.449 12.712C79.869 12.712 80.2143 12.6187 80.485 12.432C80.765 12.2453 80.9423 11.998 81.017 11.69H82.655C82.5803 12.11 82.4403 12.474 82.235 12.782C82.039 13.09 81.7963 13.342 81.507 13.538C81.2177 13.734 80.8957 13.8787 80.541 13.972C80.1863 14.056 79.8083 14.098 79.407 14.098ZM87.3383 6.496C87.9263 6.496 88.4443 6.58933 88.8923 6.776C89.3403 6.96267 89.7183 7.224 90.0263 7.56C90.3437 7.88667 90.5817 8.28333 90.7403 8.75C90.899 9.21667 90.9783 9.73467 90.9783 10.304C90.9783 10.8827 90.899 11.4053 90.7403 11.872C90.591 12.3293 90.3623 12.726 90.0543 13.062C89.7463 13.398 89.3637 13.6547 88.9063 13.832C88.4583 14.0093 87.9357 14.098 87.3383 14.098C86.7503 14.098 86.2323 14.0093 85.7843 13.832C85.3363 13.6453 84.9583 13.3887 84.6503 13.062C84.3517 12.726 84.123 12.3247 83.9643 11.858C83.815 11.3913 83.7403 10.8733 83.7403 10.304C83.7403 9.73467 83.815 9.21667 83.9643 8.75C84.123 8.28333 84.3563 7.88667 84.6643 7.56C84.9723 7.224 85.3503 6.96267 85.7983 6.776C86.2463 6.58933 86.7597 6.496 87.3383 6.496ZM87.3383 12.712C87.7023 12.712 88.0103 12.6513 88.2623 12.53C88.5237 12.3993 88.7337 12.2267 88.8923 12.012C89.0603 11.7973 89.1817 11.5453 89.2563 11.256C89.3403 10.9667 89.3823 10.654 89.3823 10.318C89.3823 9.982 89.3403 9.66933 89.2563 9.38C89.1817 9.08133 89.0603 8.82467 88.8923 8.61C88.7337 8.39533 88.5237 8.22733 88.2623 8.106C88.0103 7.98467 87.7023 7.924 87.3383 7.924C87.0023 7.924 86.699 7.98467 86.4283 8.106C86.167 8.22733 85.9523 8.39533 85.7843 8.61C85.6257 8.82467 85.5043 9.08133 85.4203 9.38C85.3457 9.66933 85.3083 9.982 85.3083 10.318C85.3083 10.654 85.3457 10.9667 85.4203 11.256C85.5043 11.5453 85.6257 11.7973 85.7843 12.012C85.9523 12.2267 86.1623 12.3993 86.4143 12.53C86.6757 12.6513 86.9837 12.712 87.3383 12.712ZM92.4285 14V6.622H97.7625V8.008H94.0245V14H92.4285ZM99.5677 10.486C99.6143 9.85133 99.6423 9.22133 99.6517 8.596C99.6703 7.96133 99.689 7.30333 99.7077 6.622H105.224V14H103.614V8.008H101.192C101.173 8.46533 101.154 8.92267 101.136 9.38C101.126 9.828 101.108 10.276 101.08 10.724C101.07 10.892 101.052 11.0927 101.024 11.326C101.005 11.55 100.977 11.7787 100.94 12.012C100.902 12.236 100.846 12.4507 100.772 12.656C100.697 12.852 100.604 13.034 100.492 13.202C100.296 13.482 100.034 13.6873 99.7077 13.818C99.3903 13.9393 99.0217 14 98.6017 14H98.2097V12.628C98.4897 12.628 98.7137 12.5627 98.8817 12.432C99.059 12.292 99.1897 12.1193 99.2737 11.914C99.367 11.6993 99.4323 11.4707 99.4697 11.228C99.5163 10.976 99.549 10.7287 99.5677 10.486ZM111.722 13.09C111.479 13.4353 111.157 13.692 110.756 13.86C110.354 14.0187 109.906 14.098 109.412 14.098C109.02 14.098 108.66 14.0513 108.334 13.958C108.016 13.8647 107.736 13.7247 107.494 13.538C107.251 13.342 107.06 13.104 106.92 12.824C106.78 12.5347 106.71 12.208 106.71 11.844C106.71 11.4427 106.789 11.102 106.948 10.822C107.106 10.5327 107.321 10.2993 107.592 10.122C107.872 9.94467 108.198 9.814 108.572 9.73C108.945 9.63667 109.337 9.59 109.748 9.59H111.638C111.638 9.04867 111.516 8.62867 111.274 8.33C111.031 8.03133 110.606 7.87733 110 7.868C109.645 7.868 109.337 7.92867 109.076 8.05C108.824 8.17133 108.656 8.372 108.572 8.652H106.934C106.99 8.26 107.116 7.92867 107.312 7.658C107.517 7.38733 107.76 7.16333 108.04 6.986C108.329 6.80867 108.646 6.68267 108.992 6.608C109.346 6.53333 109.701 6.496 110.056 6.496C110.513 6.496 110.938 6.55667 111.33 6.678C111.722 6.79933 112.062 7.00467 112.352 7.294C112.678 7.63 112.898 8.03133 113.01 8.498C113.122 8.96467 113.178 9.47333 113.178 10.024V14H111.792L111.722 13.09ZM111.638 10.724H110.098C109.827 10.724 109.556 10.7473 109.286 10.794C109.015 10.8313 108.782 10.9293 108.586 11.088C108.399 11.2373 108.306 11.4567 108.306 11.746C108.306 12.1007 108.432 12.3713 108.684 12.558C108.945 12.7353 109.262 12.824 109.636 12.824C109.925 12.824 110.191 12.7867 110.434 12.712C110.686 12.6373 110.9 12.516 111.078 12.348C111.255 12.1707 111.39 11.9513 111.484 11.69C111.586 11.4193 111.638 11.0973 111.638 10.724ZM118.139 14.098C117.551 14.098 117.033 14.0093 116.585 13.832C116.147 13.6453 115.778 13.3887 115.479 13.062C115.19 12.726 114.971 12.3293 114.821 11.872C114.681 11.4053 114.611 10.892 114.611 10.332C114.611 9.772 114.686 9.25867 114.835 8.792C114.994 8.32533 115.227 7.924 115.535 7.588C115.843 7.252 116.217 6.986 116.655 6.79C117.094 6.594 117.603 6.496 118.181 6.496C118.592 6.496 118.97 6.54267 119.315 6.636C119.67 6.72 119.983 6.86467 120.253 7.07C120.524 7.266 120.757 7.518 120.953 7.826C121.149 8.12467 121.285 8.48867 121.359 8.918H119.707C119.623 8.60067 119.441 8.358 119.161 8.19C118.891 8.01267 118.555 7.924 118.153 7.924C117.799 7.924 117.495 7.98933 117.243 8.12C116.991 8.25067 116.786 8.428 116.627 8.652C116.469 8.876 116.352 9.13733 116.277 9.436C116.212 9.72533 116.179 10.0287 116.179 10.346C116.179 10.6727 116.217 10.9807 116.291 11.27C116.366 11.5593 116.483 11.8113 116.641 12.026C116.809 12.2313 117.019 12.3993 117.271 12.53C117.523 12.6513 117.827 12.712 118.181 12.712C118.601 12.712 118.947 12.6187 119.217 12.432C119.497 12.2453 119.675 11.998 119.749 11.69H121.387C121.313 12.11 121.173 12.474 120.967 12.782C120.771 13.09 120.529 13.342 120.239 13.538C119.95 13.734 119.628 13.8787 119.273 13.972C118.919 14.056 118.541 14.098 118.139 14.098ZM126.071 6.496C126.659 6.496 127.177 6.58933 127.625 6.776C128.073 6.96267 128.451 7.224 128.759 7.56C129.076 7.88667 129.314 8.28333 129.473 8.75C129.631 9.21667 129.711 9.73467 129.711 10.304C129.711 10.8827 129.631 11.4053 129.473 11.872C129.323 12.3293 129.095 12.726 128.787 13.062C128.479 13.398 128.096 13.6547 127.639 13.832C127.191 14.0093 126.668 14.098 126.071 14.098C125.483 14.098 124.965 14.0093 124.517 13.832C124.069 13.6453 123.691 13.3887 123.383 13.062C123.084 12.726 122.855 12.3247 122.697 11.858C122.547 11.3913 122.473 10.8733 122.473 10.304C122.473 9.73467 122.547 9.21667 122.697 8.75C122.855 8.28333 123.089 7.88667 123.397 7.56C123.705 7.224 124.083 6.96267 124.531 6.776C124.979 6.58933 125.492 6.496 126.071 6.496ZM126.071 12.712C126.435 12.712 126.743 12.6513 126.995 12.53C127.256 12.3993 127.466 12.2267 127.625 12.012C127.793 11.7973 127.914 11.5453 127.989 11.256C128.073 10.9667 128.115 10.654 128.115 10.318C128.115 9.982 128.073 9.66933 127.989 9.38C127.914 9.08133 127.793 8.82467 127.625 8.61C127.466 8.39533 127.256 8.22733 126.995 8.106C126.743 7.98467 126.435 7.924 126.071 7.924C125.735 7.924 125.431 7.98467 125.161 8.106C124.899 8.22733 124.685 8.39533 124.517 8.61C124.358 8.82467 124.237 9.08133 124.153 9.38C124.078 9.66933 124.041 9.982 124.041 10.318C124.041 10.654 124.078 10.9667 124.153 11.256C124.237 11.5453 124.358 11.7973 124.517 12.012C124.685 12.2267 124.895 12.3993 125.147 12.53C125.408 12.6513 125.716 12.712 126.071 12.712ZM131.161 6.622H134.311C134.638 6.622 134.969 6.64067 135.305 6.678C135.641 6.706 135.944 6.78533 136.215 6.916C136.495 7.04667 136.719 7.238 136.887 7.49C137.064 7.73267 137.158 8.064 137.167 8.484C137.167 8.81067 137.092 9.114 136.943 9.394C136.794 9.674 136.556 9.90267 136.229 10.08C136.677 10.2013 137.004 10.416 137.209 10.724C137.424 11.0227 137.531 11.382 137.531 11.802C137.531 12.194 137.452 12.5347 137.293 12.824C137.134 13.104 136.924 13.3327 136.663 13.51C136.402 13.678 136.098 13.804 135.753 13.888C135.408 13.9627 135.044 14 134.661 14H131.161V6.622ZM132.771 7.952V9.646H133.737C133.952 9.646 134.171 9.646 134.395 9.646C134.628 9.63667 134.834 9.604 135.011 9.548C135.198 9.492 135.347 9.40333 135.459 9.282C135.58 9.16067 135.641 8.988 135.641 8.764C135.641 8.568 135.594 8.41867 135.501 8.316C135.417 8.204 135.31 8.12 135.179 8.064C135.048 8.008 134.899 7.97533 134.731 7.966C134.572 7.95667 134.423 7.952 134.283 7.952H132.771ZM134.395 12.656C134.582 12.656 134.764 12.6467 134.941 12.628C135.128 12.6093 135.291 12.5673 135.431 12.502C135.58 12.4273 135.702 12.334 135.795 12.222C135.888 12.1007 135.935 11.942 135.935 11.746C135.935 11.3913 135.823 11.1533 135.599 11.032C135.384 10.9107 135.118 10.85 134.801 10.85H132.771V12.656H134.395ZM143.769 13.09C143.526 13.4353 143.204 13.692 142.803 13.86C142.401 14.0187 141.953 14.098 141.459 14.098C141.067 14.098 140.707 14.0513 140.381 13.958C140.063 13.8647 139.783 13.7247 139.541 13.538C139.298 13.342 139.107 13.104 138.967 12.824C138.827 12.5347 138.757 12.208 138.757 11.844C138.757 11.4427 138.836 11.102 138.995 10.822C139.153 10.5327 139.368 10.2993 139.639 10.122C139.919 9.94467 140.245 9.814 140.619 9.73C140.992 9.63667 141.384 9.59 141.795 9.59H143.685C143.685 9.04867 143.563 8.62867 143.321 8.33C143.078 8.03133 142.653 7.87733 142.047 7.868C141.692 7.868 141.384 7.92867 141.123 8.05C140.871 8.17133 140.703 8.372 140.619 8.652H138.981C139.037 8.26 139.163 7.92867 139.359 7.658C139.564 7.38733 139.807 7.16333 140.087 6.986C140.376 6.80867 140.693 6.68267 141.039 6.608C141.393 6.53333 141.748 6.496 142.103 6.496C142.56 6.496 142.985 6.55667 143.377 6.678C143.769 6.79933 144.109 7.00467 144.399 7.294C144.725 7.63 144.945 8.03133 145.057 8.498C145.169 8.96467 145.225 9.47333 145.225 10.024V14H143.839L143.769 13.09ZM143.685 10.724H142.145C141.874 10.724 141.603 10.7473 141.333 10.794C141.062 10.8313 140.829 10.9293 140.633 11.088C140.446 11.2373 140.353 11.4567 140.353 11.746C140.353 12.1007 140.479 12.3713 140.731 12.558C140.992 12.7353 141.309 12.824 141.683 12.824C141.972 12.824 142.238 12.7867 142.481 12.712C142.733 12.6373 142.947 12.516 143.125 12.348C143.302 12.1707 143.437 11.9513 143.531 11.69C143.633 11.4193 143.685 11.0973 143.685 10.724ZM147.624 10.486C147.671 9.85133 147.699 9.22133 147.708 8.596C147.727 7.96133 147.746 7.30333 147.764 6.622H153.28V14H151.67V8.008H149.248C149.23 8.46533 149.211 8.92267 149.192 9.38C149.183 9.828 149.164 10.276 149.136 10.724C149.127 10.892 149.108 11.0927 149.08 11.326C149.062 11.55 149.034 11.7787 148.996 12.012C148.959 12.236 148.903 12.4507 148.828 12.656C148.754 12.852 148.66 13.034 148.548 13.202C148.352 13.482 148.091 13.6873 147.764 13.818C147.447 13.9393 147.078 14 146.658 14H146.266V12.628C146.546 12.628 146.77 12.5627 146.938 12.432C147.116 12.292 147.246 12.1193 147.33 11.914C147.424 11.6993 147.489 11.4707 147.526 11.228C147.573 10.976 147.606 10.7287 147.624 10.486ZM156.502 14H155.018V6.622H156.614V11.69L160.366 6.622H161.808V14H160.212V9.03C160.203 9.04867 158.966 10.7053 156.502 14ZM167.323 6.622H170.473C170.8 6.622 171.131 6.64067 171.467 6.678C171.803 6.706 172.106 6.78533 172.377 6.916C172.657 7.04667 172.881 7.238 173.049 7.49C173.226 7.73267 173.32 8.064 173.329 8.484C173.329 8.81067 173.254 9.114 173.105 9.394C172.956 9.674 172.718 9.90267 172.391 10.08C172.839 10.2013 173.166 10.416 173.371 10.724C173.586 11.0227 173.693 11.382 173.693 11.802C173.693 12.194 173.614 12.5347 173.455 12.824C173.296 13.104 173.086 13.3327 172.825 13.51C172.564 13.678 172.26 13.804 171.915 13.888C171.57 13.9627 171.206 14 170.823 14H167.323V6.622ZM168.933 7.952V9.646H169.899C170.114 9.646 170.333 9.646 170.557 9.646C170.79 9.63667 170.996 9.604 171.173 9.548C171.36 9.492 171.509 9.40333 171.621 9.282C171.742 9.16067 171.803 8.988 171.803 8.764C171.803 8.568 171.756 8.41867 171.663 8.316C171.579 8.204 171.472 8.12 171.341 8.064C171.21 8.008 171.061 7.97533 170.893 7.966C170.734 7.95667 170.585 7.952 170.445 7.952H168.933ZM170.557 12.656C170.744 12.656 170.926 12.6467 171.103 12.628C171.29 12.6093 171.453 12.5673 171.593 12.502C171.742 12.4273 171.864 12.334 171.957 12.222C172.05 12.1007 172.097 11.942 172.097 11.746C172.097 11.3913 171.985 11.1533 171.761 11.032C171.546 10.9107 171.28 10.85 170.963 10.85H168.933V12.656H170.557Z" fill="white"/>
</svg>